<svg xmlns="http://www.w3.org/2000/svg" width="46" height="49" viewBox="0 0 46 49">
  <metadata><?xpacket begin="﻿" id="W5M0MpCehiHzreSzNTczkc9d"?>
<x:xmpmeta xmlns:x="adobe:ns:meta/" x:xmptk="Adobe XMP Core 5.6-c138 79.159824, 2016/09/14-01:09:01        ">
   <rdf:RDF xmlns:rdf="http://www.w3.org/1999/02/22-rdf-syntax-ns#">
      <rdf:Description rdf:about=""/>
   </rdf:RDF>
</x:xmpmeta>
                                                                                                    
                                                                                                    
                                                                                                    
                                                                                                    
                                                                                                    
                                                                                                    
                                                                                                    
                                                                                                    
                                                                                                    
                                                                                                    
                                                                                                    
                                                                                                    
                                                                                                    
                                                                                                    
                                                                                                    
                                                                                                    
                                                                                                    
                                                                                                    
                                                                                                    
                                                                                                    
                           
<?xpacket end="w"?></metadata>
<defs>
    <style>
      .cls-1 {
        fill: #fff;
        fill-rule: evenodd;
      }
    </style>
  </defs>
  <path id="copy" class="cls-1" d="M40.75,2.036A1.194,1.194,0,0,1,42.439.348L42.6,0.509A1.194,1.194,0,0,1,40.911,2.2Zm-0.161,13.29a3.452,3.452,0,1,1-3.453,3.452A3.457,3.457,0,0,1,40.589,15.326Zm0,2.387a1.065,1.065,0,1,0,1.065,1.065A1.066,1.066,0,0,0,40.589,17.713ZM46,32.622v1.431a3.386,3.386,0,0,1-3.383,3.381H41.622v6.435A5.138,5.138,0,0,1,36.489,49H9.511a5.138,5.138,0,0,1-5.133-5.131V37.434H3.383A3.386,3.386,0,0,1,0,34.053V32.622A3.386,3.386,0,0,1,3.383,29.24H4.378V25.714A1.194,1.194,0,0,1,5.572,24.52H40.428a1.194,1.194,0,0,1,1.194,1.194V29.24h0.995A3.386,3.386,0,0,1,46,32.622ZM4.378,31.628H3.383a1,1,0,0,0-.995.994v1.431a1,1,0,0,0,.995.994H4.378v-3.42Zm34.857-4.721H6.766V43.869a2.748,2.748,0,0,0,2.745,2.744H36.489a2.748,2.748,0,0,0,2.745-2.744V26.907Zm4.378,5.715a1,1,0,0,0-.995-0.994H41.622v3.42h0.995a1,1,0,0,0,.995-0.994V32.622ZM37.443,9.564a1.191,1.191,0,0,0,.844-0.349l0.161-.16A1.194,1.194,0,0,0,36.76,7.366l-0.161.16A1.193,1.193,0,0,0,37.443,9.564Zm-9.9,12.6a1.194,1.194,0,0,0,2.388,0,1.711,1.711,0,0,1,3.421,0,1.194,1.194,0,0,0,2.388,0A4.1,4.1,0,0,0,27.546,22.16Zm-22.3-1.786a1.193,1.193,0,0,1,.887-1.436L19.1,15.872,18.874,14.9a3.385,3.385,0,0,1,2.514-4.068l1.393-.329a3.387,3.387,0,0,1,4.07,2.512l0.229,0.968,12.972-3.066a1.194,1.194,0,1,1,.549,2.323L6.681,21.261A1.192,1.192,0,0,1,5.244,20.374ZM21.2,14.355l0.229,0.968,3.329-.787-0.229-.968a1,1,0,0,0-1.2-.739l-1.393.329A1,1,0,0,0,21.2,14.355Z"/>
</svg>
